<svg width="30" height="30" viewBox="0 0 30 30" fill="none" xmlns="http://www.w3.org/2000/svg">
<g clip-path="url(#clip0_9948_818)">
<path fill-rule="evenodd" clip-rule="evenodd" d="M15 30C12.0333 30 9.13319 29.1203 6.66646 27.4721C4.19972 25.8238 2.27714 23.4811 1.14183 20.7403C0.00651479 17.9994 -0.290556 14.9834 0.288222 12.0736C0.867 9.16393 2.29563 6.4912 4.39342 4.39341C6.4912 2.29562 9.16394 0.867008 12.0737 0.28823C14.9834 -0.290548 17.9994 0.00649226 20.7403 1.14181C23.4812 2.27712 25.8238 4.19971 27.4721 6.66645C29.1203 9.13319 30 12.0333 30 15C30 18.9783 28.4197 22.7936 25.6066 25.6066C22.7936 28.4196 18.9783 30 15 30ZM6.507 18.3825C6.18444 18.0564 6.00352 17.6162 6.00352 17.1575C6.00352 16.6988 6.18444 16.2586 6.507 15.9325L7.39003 15.0545C7.54019 14.903 7.71925 14.7832 7.91661 14.7022C8.11397 14.6212 8.32561 14.5807 8.53892 14.5831C8.75224 14.5855 8.96289 14.6307 9.1584 14.716C9.35391 14.8014 9.53027 14.9252 9.67702 15.08L11.237 16.6985C11.3114 16.777 11.401 16.8395 11.5003 16.8822C11.5997 16.9249 11.7066 16.947 11.8148 16.947C11.9229 16.947 12.0299 16.9249 12.1292 16.8822C12.2286 16.8395 12.3181 16.777 12.3925 16.6985L20.3425 8.5035C20.4903 8.34757 20.6681 8.22315 20.8653 8.1377C21.0624 8.05226 21.2748 8.00757 21.4896 8.00631C21.7045 8.00505 21.9174 8.04724 22.1155 8.13036C22.3136 8.21349 22.4929 8.33583 22.6425 8.49001L23.5 9.357C23.8147 9.68178 23.9907 10.1163 23.9907 10.5685C23.9907 11.0207 23.8147 11.4552 23.5 11.78L12.9455 22.5055C12.7982 22.658 12.622 22.7795 12.4271 22.863C12.2322 22.9464 12.0226 22.9901 11.8107 22.9915C11.5987 22.9929 11.3885 22.952 11.1926 22.8711C10.9966 22.7902 10.8188 22.671 10.6695 22.5205L6.507 18.3825Z" fill="#F86600"/>
</g>
<defs>
<clipPath id="clip0_9948_818">
<rect width="30" height="30" fill="white"/>
</clipPath>
</defs>
</svg>
