<svg width="229" height="22" viewBox="0 0 229 22" fill="none" xmlns="http://www.w3.org/2000/svg">
<path d="M15.68 21H10.336L9.728 17.864H5.952L5.344 21H0.256L3.904 1.128H12.032L15.68 21ZM9.12 14.12L8 7.016H7.776L6.656 14.12H9.12ZM30.9455 7.432C30.9455 8.62667 30.7642 9.61867 30.4015 10.408C30.0388 11.1973 29.4735 11.912 28.7055 12.552L31.3615 21H25.4415L23.4575 13.832H22.7215V21H17.3455V1.128H24.7695C26.9028 1.128 28.4602 1.62933 29.4415 2.632C30.4442 3.63467 30.9455 5.23467 30.9455 7.432ZM23.5535 10.472C24.1082 10.472 24.5028 10.312 24.7375 9.992C24.9722 9.672 25.0895 9.096 25.0895 8.264C25.0895 7.41067 24.9722 6.824 24.7375 6.504C24.5028 6.16267 24.1188 5.992 23.5855 5.992H22.7215V10.472H23.5535ZM52.39 21H47.366V10.632H47.078L45.19 21H40.038L38.246 10.632H37.926V21H32.966L33.638 1.128H40.838L42.63 11.88H42.886L44.614 1.128H51.718L52.39 21ZM69.2738 21H63.9298L63.3218 17.864H59.5458L58.9378 21H53.8498L57.4978 1.128H65.6258L69.2738 21ZM62.7138 14.12L61.5938 7.016H61.3698L60.2498 14.12H62.7138ZM82.9073 7.048C80.8593 6.42933 79.3553 6.12 78.3953 6.12C77.4566 6.12 76.8059 6.536 76.4433 7.368C76.1019 8.2 75.9313 9.52267 75.9313 11.336C75.9313 13.128 76.0913 14.44 76.4113 15.272C76.7526 16.0827 77.4353 16.488 78.4593 16.488C78.7579 16.488 79.3339 16.4027 80.1873 16.232V13.8H78.7473V10.024H84.8593V21H81.0833L80.5713 19.976H80.4433C80.0806 20.2747 79.7926 20.4987 79.5793 20.648C78.9819 21.096 78.1393 21.32 77.0513 21.32C72.5926 21.32 70.3633 17.9493 70.3633 11.208C70.3633 7.83733 70.9499 5.26667 72.1233 3.496C73.2966 1.704 75.2699 0.807999 78.0433 0.807999C80.2619 0.807999 82.1713 1.14933 83.7713 1.832L82.9073 7.048ZM98.285 21H87.533V1.128H98.605L98.285 6.024H93.005V9H97.581V13.224H93.005V16.52H98.605L98.285 21ZM115.255 10.632C115.255 17.544 112.524 21 107.062 21H100.471V1.128H107.191C110.113 1.128 112.183 1.94933 113.399 3.592C114.636 5.21333 115.255 7.56 115.255 10.632ZM106.967 16.392C108.097 16.392 108.823 15.9973 109.143 15.208C109.484 14.3973 109.655 13.0533 109.655 11.176C109.655 9.27733 109.473 7.93333 109.111 7.144C108.769 6.35467 108.023 5.96 106.871 5.96H105.911V16.392H106.967ZM132.098 10.632C132.098 17.544 129.368 21 123.906 21H117.314V1.128H124.034C126.957 1.128 129.026 1.94933 130.242 3.592C131.48 5.21333 132.098 7.56 132.098 10.632ZM123.81 16.392C124.941 16.392 125.666 15.9973 125.986 15.208C126.328 14.3973 126.498 13.0533 126.498 11.176C126.498 9.27733 126.317 7.93333 125.954 7.144C125.613 6.35467 124.866 5.96 123.714 5.96H122.754V16.392H123.81ZM135.342 3.208C136.579 1.608 138.595 0.807999 141.39 0.807999C144.185 0.807999 146.179 1.59733 147.374 3.176C148.59 4.75467 149.198 7.32533 149.198 10.888C149.198 14.4293 148.579 17.0533 147.342 18.76C146.105 20.4667 144.099 21.32 141.326 21.32C138.553 21.32 136.558 20.4773 135.342 18.792C134.126 17.1067 133.518 14.4933 133.518 10.952C133.518 7.38933 134.126 4.808 135.342 3.208ZM143.694 10.888C143.694 8.92533 143.534 7.60267 143.214 6.92C142.915 6.216 142.286 5.864 141.326 5.864C140.387 5.864 139.779 6.216 139.502 6.92C139.225 7.60267 139.086 8.91467 139.086 10.856V11.624C139.086 13.6933 139.235 15.0587 139.534 15.72C139.854 16.36 140.483 16.68 141.422 16.68C142.382 16.68 143.001 16.3707 143.278 15.752C143.555 15.1333 143.694 13.8533 143.694 11.912V10.888ZM165.873 21H160.625L156.497 11.752H156.241V21H151.377V1.128H156.785L160.721 10.664H160.977V1.128H165.873V21ZM174.256 2.472C176.325 1.36267 178.384 0.807999 180.432 0.807999C182.501 0.807999 184.069 1.33067 185.136 2.376C186.203 3.42133 186.736 4.904 186.736 6.824C186.736 8.72267 186.395 10.28 185.712 11.496C185.051 12.712 183.824 14.3547 182.032 16.424H186.8V21H175.056L174.8 17.736C176.827 15.5813 178.267 13.9493 179.12 12.84C179.973 11.7307 180.549 10.8133 180.848 10.088C181.147 9.36267 181.296 8.69067 181.296 8.072C181.296 7.432 181.136 6.94133 180.816 6.6C180.517 6.25867 180.123 6.088 179.632 6.088C179.141 6.088 178.672 6.152 178.224 6.28C177.605 6.42933 176.624 6.81333 175.28 7.432L174.256 2.472ZM196.627 11.208V10.728C196.627 8.63733 196.563 7.42133 196.435 7.08C196.328 6.71733 196.211 6.408 196.083 6.152C195.848 5.72533 195.432 5.512 194.835 5.512C194.237 5.512 193.832 5.72533 193.619 6.152C193.363 6.70667 193.224 7.272 193.203 7.848C193.16 8.91467 193.139 9.87467 193.139 10.728V11.208C193.139 13.5333 193.192 14.888 193.299 15.272C193.427 15.6347 193.555 15.944 193.683 16.2C193.896 16.6693 194.355 16.904 195.059 16.904C195.763 16.904 196.2 16.5093 196.371 15.72C196.541 14.9093 196.627 13.4053 196.627 11.208ZM201.459 6.632C201.651 7.80533 201.747 9.27733 201.747 11.048C201.747 12.8187 201.651 14.2907 201.459 15.464C201.288 16.6373 200.957 17.6933 200.467 18.632C199.507 20.424 197.629 21.32 194.835 21.32C192.083 21.32 190.227 20.424 189.267 18.632C188.776 17.6933 188.435 16.6373 188.243 15.464C188.051 14.2693 187.955 12.7973 187.955 11.048C187.955 7.464 188.424 4.86133 189.363 3.24C190.323 1.61867 192.147 0.807999 194.835 0.807999C197.651 0.807999 199.528 1.69333 200.467 3.464C200.957 4.40267 201.288 5.45867 201.459 6.632ZM202.6 2.472C204.669 1.36267 206.728 0.807999 208.776 0.807999C210.845 0.807999 212.413 1.33067 213.48 2.376C214.546 3.42133 215.08 4.904 215.08 6.824C215.08 8.72267 214.738 10.28 214.056 11.496C213.394 12.712 212.168 14.3547 210.376 16.424H215.144V21H203.4L203.144 17.736C205.17 15.5813 206.61 13.9493 207.464 12.84C208.317 11.7307 208.893 10.8133 209.192 10.088C209.49 9.36267 209.64 8.69067 209.64 8.072C209.64 7.432 209.48 6.94133 209.16 6.6C208.861 6.25867 208.466 6.088 207.976 6.088C207.485 6.088 207.016 6.152 206.568 6.28C205.949 6.42933 204.968 6.81333 203.624 7.432L202.6 2.472ZM222.507 0.807999C226.517 0.807999 228.523 2.54667 228.523 6.024C228.523 7.06933 228.331 7.93333 227.947 8.616C227.563 9.29867 226.933 9.91733 226.059 10.472V10.6C227.04 11.048 227.744 11.6453 228.171 12.392C228.597 13.1173 228.811 14.0667 228.811 15.24C228.811 17.1813 228.256 18.6853 227.147 19.752C226.037 20.7973 224.427 21.32 222.315 21.32C221.269 21.32 220.373 21.224 219.627 21.032C218.901 20.8613 217.963 20.5307 216.811 20.04L217.931 15.56C219.701 16.2 220.928 16.52 221.611 16.52C222.613 16.52 223.115 15.9653 223.115 14.856C223.115 13.6613 222.443 13.064 221.099 13.064H219.115V8.872H221.131C221.728 8.872 222.144 8.744 222.379 8.488C222.635 8.21067 222.763 7.80533 222.763 7.272C222.763 6.248 222.261 5.736 221.259 5.736C220.555 5.736 219.307 6.09867 217.515 6.824L216.267 2.504C217.44 1.864 218.485 1.42667 219.403 1.192C220.32 0.935999 221.355 0.807999 222.507 0.807999Z" fill="#F86600"/>
</svg>
